<?xml version="1.0" encoding="UTF-8"?>
<svg version="1.1" xmlns="http://www.w3.org/2000/svg" width="512" height="512">
<path d="M0 0 C9.24 0 18.48 0 28 0 C28 0.66 28 1.32 28 2 C30.64 2 33.28 2 36 2 C36 2.66 36 3.32 36 4 C37.32 4 38.64 4 40 4 C40 4.66 40 5.32 40 6 C41.32 6 42.64 6 44 6 C44 6.66 44 7.32 44 8 C45.32 8 46.64 8 48 8 C48 8.66 48 9.32 48 10 C48.66 10 49.32 10 50 10 C50 10.66 50 11.32 50 12 C51.32 12 52.64 12 54 12 C54 12.66 54 13.32 54 14 C54.66 14 55.32 14 56 14 C56 14.66 56 15.32 56 16 C56.66 16 57.32 16 58 16 C58 16.66 58 17.32 58 18 C58.66 18 59.32 18 60 18 C60 18.66 60 19.32 60 20 C60.66 20 61.32 20 62 20 C62 20.66 62 21.32 62 22 C62.66 22 63.32 22 64 22 C64 22.66 64 23.32 64 24 C64.66 24 65.32 24 66 24 C66 24.66 66 25.32 66 26 C66.66 26 67.32 26 68 26 C68 27.32 68 28.64 68 30 C68.66 30 69.32 30 70 30 C70 30.66 70 31.32 70 32 C70.66 32 71.32 32 72 32 C72 32.66 72 33.32 72 34 C72.66 34 73.32 34 74 34 C74 35.32 74 36.64 74 38 C74.66 38 75.32 38 76 38 C76 38.66 76 39.32 76 40 C76.66 40 77.32 40 78 40 C78 41.32 78 42.64 78 44 C78.66 44 79.32 44 80 44 C80 44.66 80 45.32 80 46 C80.66 46 81.32 46 82 46 C82 47.32 82 48.64 82 50 C82.66 50 83.32 50 84 50 C84 51.32 84 52.64 84 54 C84.66 54 85.32 54 86 54 C86 55.32 86 56.64 86 58 C86.66 58 87.32 58 88 58 C88 59.32 88 60.64 88 62 C88.66 62 89.32 62 90 62 C90 60.68 90 59.36 90 58 C90.66 58 91.32 58 92 58 C92 56.68 92 55.36 92 54 C92.66 54 93.32 54 94 54 C94 52.02 94 50.04 94 48 C94.66 48 95.32 48 96 48 C96 47.34 96 46.68 96 46 C96.66 46 97.32 46 98 46 C98 44.68 98 43.36 98 42 C98.66 42 99.32 42 100 42 C100 40.68 100 39.36 100 38 C100.66 38 101.32 38 102 38 C102 37.34 102 36.68 102 36 C102.66 36 103.32 36 104 36 C104 35.34 104 34.68 104 34 C104.66 34 105.32 34 106 34 C106 32.68 106 31.36 106 30 C106.66 30 107.32 30 108 30 C108 29.34 108 28.68 108 28 C108.66 28 109.32 28 110 28 C110 27.34 110 26.68 110 26 C110.66 26 111.32 26 112 26 C112 25.34 112 24.68 112 24 C112.66 24 113.32 24 114 24 C114 23.34 114 22.68 114 22 C114.66 22 115.32 22 116 22 C116 21.34 116 20.68 116 20 C116.66 20 117.32 20 118 20 C118 19.34 118 18.68 118 18 C118.66 18 119.32 18 120 18 C120 17.34 120 16.68 120 16 C120.66 16 121.32 16 122 16 C122 15.34 122 14.68 122 14 C122.66 14 123.32 14 124 14 C124 13.34 124 12.68 124 12 C124.66 12 125.32 12 126 12 C126 11.34 126 10.68 126 10 C127.32 10 128.64 10 130 10 C130 9.34 130 8.68 130 8 C130.66 8 131.32 8 132 8 C132 7.34 132 6.68 132 6 C133.32 6 134.64 6 136 6 C136 5.34 136 4.68 136 4 C137.98 4 139.96 4 142 4 C142 3.34 142 2.68 142 2 C143.32 2 144.64 2 146 2 C146 1.34 146 0.68 146 0 C156.56 0 167.12 0 178 0 C178 0.66 178 1.32 178 2 C179.32 2 180.64 2 182 2 C182 2.66 182 3.32 182 4 C183.32 4 184.64 4 186 4 C186 4.66 186 5.32 186 6 C187.32 6 188.64 6 190 6 C190 6.66 190 7.32 190 8 C190.66 8 191.32 8 192 8 C192 8.66 192 9.32 192 10 C192.66 10 193.32 10 194 10 C194 10.66 194 11.32 194 12 C194.66 12 195.32 12 196 12 C196 12.66 196 13.32 196 14 C196.66 14 197.32 14 198 14 C198 15.32 198 16.64 198 18 C198.66 18 199.32 18 200 18 C200 19.32 200 20.64 200 22 C200.66 22 201.32 22 202 22 C202 24.64 202 27.28 202 30 C202.66 30 203.32 30 204 30 C204 35.28 204 40.56 204 46 C203.34 46 202.68 46 202 46 C202 48.64 202 51.28 202 54 C201.34 54 200.68 54 200 54 C200 55.98 200 57.96 200 60 C199.34 60 198.68 60 198 60 C198 60.66 198 61.32 198 62 C197.34 62 196.68 62 196 62 C196 63.32 196 64.64 196 66 C195.34 66 194.68 66 194 66 C194 66.66 194 67.32 194 68 C193.34 68 192.68 68 192 68 C192 68.66 192 69.32 192 70 C191.34 70 190.68 70 190 70 C190 70.66 190 71.32 190 72 C189.34 72 188.68 72 188 72 C188 72.66 188 73.32 188 74 C187.34 74 186.68 74 186 74 C186 74.66 186 75.32 186 76 C185.34 76 184.68 76 184 76 C184 76.66 184 77.32 184 78 C183.34 78 182.68 78 182 78 C182 78.66 182 79.32 182 80 C180.68 80 179.36 80 178 80 C178 80.66 178 81.32 178 82 C177.34 82 176.68 82 176 82 C176 82.66 176 83.32 176 84 C174.68 84 173.36 84 172 84 C172 84.66 172 85.32 172 86 C197.08 86 222.16 86 248 86 C248 86.66 248 87.32 248 88 C248.66 88 249.32 88 250 88 C250 88.66 250 89.32 250 90 C250.66 90 251.32 90 252 90 C252 90.66 252 91.32 252 92 C252.66 92 253.32 92 254 92 C254 117.74 254 143.48 254 170 C253.34 170 252.68 170 252 170 C252 171.32 252 172.64 252 174 C250.68 174 249.36 174 248 174 C248 174.66 248 175.32 248 176 C242.06 176 236.12 176 230 176 C230 182.6 230 189.2 230 196 C229.34 196 228.68 196 228 196 C228 199.96 228 203.92 228 208 C227.34 208 226.68 208 226 208 C226 211.3 226 214.6 226 218 C225.34 218 224.68 218 224 218 C224 219.98 224 221.96 224 224 C223.34 224 222.68 224 222 224 C222 226.64 222 229.28 222 232 C221.34 232 220.68 232 220 232 C220 233.32 220 234.64 220 236 C219.34 236 218.68 236 218 236 C218 237.98 218 239.96 218 242 C217.34 242 216.68 242 216 242 C216 243.32 216 244.64 216 246 C215.34 246 214.68 246 214 246 C214 247.32 214 248.64 214 250 C213.34 250 212.68 250 212 250 C212 251.32 212 252.64 212 254 C211.34 254 210.68 254 210 254 C209.855625 254.61875 209.71125 255.2375 209.5625 255.875 C209 258 209 258 208 260 C207.34 260 206.68 260 206 260 C205.855625 260.61875 205.71125 261.2375 205.5625 261.875 C205 264 205 264 204 266 C203.34 266 202.68 266 202 266 C201.855625 266.61875 201.71125 267.2375 201.5625 267.875 C201 270 201 270 200 272 C199.34 272 198.68 272 198 272 C198 273.32 198 274.64 198 276 C197.34 276 196.68 276 196 276 C196 276.66 196 277.32 196 278 C195.34 278 194.68 278 194 278 C194 279.32 194 280.64 194 282 C193.34 282 192.68 282 192 282 C192 283.32 192 284.64 192 286 C191.34 286 190.68 286 190 286 C190 287.32 190 288.64 190 290 C189.34 290 188.68 290 188 290 C187.86722656 290.57234375 187.73445313 291.1446875 187.59765625 291.734375 C187.00619683 293.97650875 186.26711146 296.08579619 185.4375 298.25 C185.03337891 299.30960937 185.03337891 299.30960937 184.62109375 300.390625 C184.41613281 300.92171875 184.21117187 301.4528125 184 302 C183.34 302 182.68 302 182 302 C182 303.98 182 305.96 182 308 C181.34 308 180.68 308 180 308 C180 310.64 180 313.28 180 316 C179.34 316 178.68 316 178 316 C178.01740234 316.95712891 178.01740234 316.95712891 178.03515625 317.93359375 C178.04417969 318.75988281 178.05320312 319.58617187 178.0625 320.4375 C178.07410156 321.26121094 178.08570313 322.08492188 178.09765625 322.93359375 C178 325 178 325 177 326 C176.76321284 328.69235776 176.57801975 331.36498156 176.4375 334.0625 C176.37272461 335.20041992 176.37272461 335.20041992 176.30664062 336.36132812 C176.20026367 338.24065438 176.09960066 340.12030244 176 342 C175.34 342 174.68 342 174 342 C174.03480469 342.73605469 174.06960938 343.47210938 174.10546875 344.23046875 C174.13253906 345.20628906 174.15960938 346.18210937 174.1875 347.1875 C174.22230469 348.15042969 174.25710938 349.11335938 174.29296875 350.10546875 C174 353 174 353 172.51367188 355.13085938 C170.43986895 359.06171937 170.52304528 362.41906155 170.48828125 366.80078125 C170.47033005 367.63715622 170.45237885 368.47353119 170.43388367 369.33525085 C170.37990491 371.99428334 170.34592539 374.65313761 170.3125 377.3125 C170.27931589 379.12046744 170.24482522 380.9284114 170.20898438 382.73632812 C170.12418576 387.15742324 170.05731559 391.57846664 170 396 C169.34 396 168.68 396 168 396 C168.02320313 396.75925781 168.04640625 397.51851563 168.0703125 398.30078125 C168.08835937 399.29464844 168.10640625 400.28851563 168.125 401.3125 C168.14820313 402.29863281 168.17140625 403.28476562 168.1953125 404.30078125 C168 407 168 407 166 410 C165.34 410 164.68 410 164 410 C164 411.32 164 412.64 164 414 C163.34 414 162.68 414 162 414 C162 414.66 162 415.32 162 416 C161.34 416 160.68 416 160 416 C160 416.66 160 417.32 160 418 C159.34 418 158.68 418 158 418 C158 418.66 158 419.32 158 420 C157.34 420 156.68 420 156 420 C156 420.66 156 421.32 156 422 C153 424 153 424 150 424 C150 424.66 150 425.32 150 426 C148.02 426 146.04 426 144 426 C144 426.66 144 427.32 144 428 C142.02 428 140.04 428 138 428 C138 428.66 138 429.32 138 430 C137.34 430 136.68 430 136 430 C136 431.32 136 432.64 136 434 C135.34 434 134.68 434 134 434 C134 435.32 134 436.64 134 438 C133.34 438 132.68 438 132 438 C132 439.32 132 440.64 132 442 C131.34 442 130.68 442 130 442 C130 442.66 130 443.32 130 444 C129.34 444 128.68 444 128 444 C128 444.66 128 445.32 128 446 C127.34 446 126.68 446 126 446 C126 447.32 126 448.64 126 450 C124.68 450 123.36 450 122 450 C122 450.66 122 451.32 122 452 C121.34 452 120.68 452 120 452 C120 452.66 120 453.32 120 454 C119.34 454 118.68 454 118 454 C118 454.66 118 455.32 118 456 C117.34 456 116.68 456 116 456 C116 456.66 116 457.32 116 458 C114.68 458 113.36 458 112 458 C112 458.66 112 459.32 112 460 C110.02 460 108.04 460 106 460 C106 460.66 106 461.32 106 462 C95.44 462 84.88 462 74 462 C74 461.34 74 460.68 74 460 C71.36 460 68.72 460 66 460 C66 459.34 66 458.68 66 458 C64.68 458 63.36 458 62 458 C62 457.34 62 456.68 62 456 C61.34 456 60.68 456 60 456 C60 455.34 60 454.68 60 454 C58.68 454 57.36 454 56 454 C56 453.34 56 452.68 56 452 C55.34 452 54.68 452 54 452 C54 451.34 54 450.68 54 450 C53.34 450 52.68 450 52 450 C52 449.34 52 448.68 52 448 C51.34 448 50.68 448 50 448 C50 447.34 50 446.68 50 446 C49.34 446 48.68 446 48 446 C48 444.68 48 443.36 48 442 C47.34 442 46.68 442 46 442 C46 441.34 46 440.68 46 440 C45.34 440 44.68 440 44 440 C44 438.68 44 437.36 44 436 C43.34 436 42.68 436 42 436 C42 434.68 42 433.36 42 432 C41.34 432 40.68 432 40 432 C39.01 430.515 39.01 430.515 38 429 C34.93443402 428.26656572 34.93443402 428.26656572 32 428 C32 427.34 32 426.68 32 426 C30.02 426 28.04 426 26 426 C26 425.34 26 424.68 26 424 C24.68 424 23.36 424 22 424 C22 423.34 22 422.68 22 422 C21.34 422 20.68 422 20 422 C20 421.34 20 420.68 20 420 C19.34 420 18.68 420 18 420 C18 419.34 18 418.68 18 418 C17.34 418 16.68 418 16 418 C16 417.34 16 416.68 16 416 C15.34 416 14.68 416 14 416 C14 415.34 14 414.68 14 414 C13.34 414 12.68 414 12 414 C12 412.68 12 411.36 12 410 C11.34 410 10.68 410 10 410 C10 403.4 10 396.8 10 390 C9.34 390 8.68 390 8 390 C8 380.1 8 370.2 8 360 C7.34 360 6.68 360 6 360 C6 358.68 6 357.36 6 356 C5.34 356 4.68 356 4 356 C4 354.02 4 352.04 4 350 C3.34 350 2.68 350 2 350 C2 343.4 2 336.8 2 330 C1.34 330 0.68 330 0 330 C0 326.04 0 322.08 0 318 C-0.66 318 -1.32 318 -2 318 C-2 316.02 -2 314.04 -2 312 C-2.66 312 -3.32 312 -4 312 C-4 310.02 -4 308.04 -4 306 C-4.66 306 -5.32 306 -6 306 C-6 304.02 -6 302.04 -6 300 C-6.66 300 -7.32 300 -8 300 C-8 298.68 -8 297.36 -8 296 C-8.66 296 -9.32 296 -10 296 C-10 294.68 -10 293.36 -10 292 C-10.66 292 -11.32 292 -12 292 C-12 290.68 -12 289.36 -12 288 C-12.66 288 -13.32 288 -14 288 C-14 287.34 -14 286.68 -14 286 C-14.66 286 -15.32 286 -16 286 C-16 284.68 -16 283.36 -16 282 C-16.66 282 -17.32 282 -18 282 C-18 280.68 -18 279.36 -18 278 C-18.66 278 -19.32 278 -20 278 C-20 277.34 -20 276.68 -20 276 C-20.66 276 -21.32 276 -22 276 C-22 274.68 -22 273.36 -22 272 C-22.66 272 -23.32 272 -24 272 C-24 271.34 -24 270.68 -24 270 C-24.66 270 -25.32 270 -26 270 C-26 268.68 -26 267.36 -26 266 C-26.66 266 -27.32 266 -28 266 C-28 264.68 -28 263.36 -28 262 C-28.66 262 -29.32 262 -30 262 C-30 260.68 -30 259.36 -30 258 C-30.66 258 -31.32 258 -32 258 C-32 257.34 -32 256.68 -32 256 C-32.66 256 -33.32 256 -34 256 C-34 254.68 -34 253.36 -34 252 C-34.66 252 -35.32 252 -36 252 C-36 250.68 -36 249.36 -36 248 C-36.66 248 -37.32 248 -38 248 C-38 246.68 -38 245.36 -38 244 C-38.66 244 -39.32 244 -40 244 C-40 242.02 -40 240.04 -40 238 C-40.66 238 -41.32 238 -42 238 C-42 236.68 -42 235.36 -42 234 C-42.66 234 -43.32 234 -44 234 C-44 231.36 -44 228.72 -44 226 C-44.66 226 -45.32 226 -46 226 C-46 224.02 -46 222.04 -46 220 C-46.66 220 -47.32 220 -48 220 C-48 216.7 -48 213.4 -48 210 C-48.66 210 -49.32 210 -50 210 C-50 206.04 -50 202.08 -50 198 C-50.66 198 -51.32 198 -52 198 C-52 191.4 -52 184.8 -52 178 C-52.66 178 -53.32 178 -54 178 C-54 177.34 -54 176.68 -54 176 C-59.28 176 -64.56 176 -70 176 C-70 175.34 -70 174.68 -70 174 C-71.32 174 -72.64 174 -74 174 C-74 173.34 -74 172.68 -74 172 C-74.66 172 -75.32 172 -76 172 C-76 144.94 -76 117.88 -76 90 C-75.34 90 -74.68 90 -74 90 C-74 89.34 -74 88.68 -74 88 C-68.72 88 -63.44 88 -58 88 C-58 87.34 -58 86.68 -58 86 C-36.88 86 -15.76 86 6 86 C6 85.34 6 84.68 6 84 C4.68 84 3.36 84 2 84 C2 83.34 2 82.68 2 82 C1.34 82 0.68 82 0 82 C0 81.34 0 80.68 0 80 C-1.32 80 -2.64 80 -4 80 C-4 79.34 -4 78.68 -4 78 C-4.66 78 -5.32 78 -6 78 C-6 77.34 -6 76.68 -6 76 C-6.66 76 -7.32 76 -8 76 C-8 75.34 -8 74.68 -8 74 C-8.66 74 -9.32 74 -10 74 C-10 73.34 -10 72.68 -10 72 C-10.66 72 -11.32 72 -12 72 C-12 71.34 -12 70.68 -12 70 C-12.66 70 -13.32 70 -14 70 C-14 69.34 -14 68.68 -14 68 C-14.66 68 -15.32 68 -16 68 C-16 67.34 -16 66.68 -16 66 C-16.66 66 -17.32 66 -18 66 C-18 64.68 -18 63.36 -18 62 C-18.66 62 -19.32 62 -20 62 C-20 60.68 -20 59.36 -20 58 C-20.66 58 -21.32 58 -22 58 C-22 56.02 -22 54.04 -22 52 C-22.66 52 -23.32 52 -24 52 C-24 42.76 -24 33.52 -24 24 C-23.34 24 -22.68 24 -22 24 C-22 22.02 -22 20.04 -22 18 C-21.34 18 -20.68 18 -20 18 C-20 16.68 -20 15.36 -20 14 C-19.34 14 -18.68 14 -18 14 C-18 13.34 -18 12.68 -18 12 C-17.34 12 -16.68 12 -16 12 C-16 11.34 -16 10.68 -16 10 C-15.34 10 -14.68 10 -14 10 C-14 9.34 -14 8.68 -14 8 C-13.34 8 -12.68 8 -12 8 C-12 7.34 -12 6.68 -12 6 C-10.68 6 -9.36 6 -8 6 C-8 5.34 -8 4.68 -8 4 C-7.34 4 -6.68 4 -6 4 C-6 3.34 -6 2.68 -6 2 C-4.02 2 -2.04 2 0 2 C0 1.34 0 0.68 0 0 Z M8 24 C8 24.66 8 25.32 8 26 C7.34 26 6.68 26 6 26 C6 26.66 6 27.32 6 28 C5.34 28 4.68 28 4 28 C4 28.66 4 29.32 4 30 C3.34 30 2.68 30 2 30 C2 30.66 2 31.32 2 32 C1.34 32 0.68 32 0 32 C0 33.32 0 34.64 0 36 C-0.66 36 -1.32 36 -2 36 C-2 37.32 -2 38.64 -2 40 C-1.34 40 -0.68 40 0 40 C0 41.98 0 43.96 0 46 C0.66 46 1.32 46 2 46 C2 46.66 2 47.32 2 48 C2.66 48 3.32 48 4 48 C4 49.32 4 50.64 4 52 C4.66 52 5.32 52 6 52 C6 52.66 6 53.32 6 54 C6.66 54 7.32 54 8 54 C8 54.66 8 55.32 8 56 C8.66 56 9.32 56 10 56 C10 56.66 10 57.32 10 58 C10.66 58 11.32 58 12 58 C12 58.66 12 59.32 12 60 C13.32 60 14.64 60 16 60 C16 60.66 16 61.32 16 62 C16.66 62 17.32 62 18 62 C18 62.66 18 63.32 18 64 C18.66 64 19.32 64 20 64 C20 64.66 20 65.32 20 66 C21.32 66 22.64 66 24 66 C24 66.66 24 67.32 24 68 C25.32 68 26.64 68 28 68 C28 68.66 28 69.32 28 70 C29.98 70 31.96 70 34 70 C34 70.66 34 71.32 34 72 C35.98 72 37.96 72 40 72 C40 72.66 40 73.32 40 74 C41.98 74 43.96 74 46 74 C46 74.66 46 75.32 46 76 C48.64 76 51.28 76 54 76 C54 76.66 54 77.32 54 78 C56.64 78 59.28 78 62 78 C62 78.66 62 79.32 62 80 C63.32 80 64.64 80 66 80 C66 78.02 66 76.04 66 74 C65.34 74 64.68 74 64 74 C64 72.68 64 71.36 64 70 C63.34 70 62.68 70 62 70 C62 68.68 62 67.36 62 66 C61.34 66 60.68 66 60 66 C60 64.68 60 63.36 60 62 C59.34 62 58.68 62 58 62 C58 60.68 58 59.36 58 58 C57.34 58 56.68 58 56 58 C56 56.68 56 55.36 56 54 C55.34 54 54.68 54 54 54 C54 52.68 54 51.36 54 50 C53.34 50 52.68 50 52 50 C52 49.34 52 48.68 52 48 C51.34 48 50.68 48 50 48 C50 47.34 50 46.68 50 46 C49.34 46 48.68 46 48 46 C48 45.34 48 44.68 48 44 C47.34 44 46.68 44 46 44 C46 43.34 46 42.68 46 42 C45.34 42 44.68 42 44 42 C44 41.34 44 40.68 44 40 C43.34 40 42.68 40 42 40 C42 39.34 42 38.68 42 38 C41.34 38 40.68 38 40 38 C40 37.34 40 36.68 40 36 C39.34 36 38.68 36 38 36 C38 35.34 38 34.68 38 34 C37.34 34 36.68 34 36 34 C36 33.34 36 32.68 36 32 C35.34 32 34.68 32 34 32 C34 31.34 34 30.68 34 30 C32.68 30 31.36 30 30 30 C30 29.34 30 28.68 30 28 C28.68 28 27.36 28 26 28 C26 27.34 26 26.68 26 26 C24.68 26 23.36 26 22 26 C22 25.34 22 24.68 22 24 C17.38 24 12.76 24 8 24 Z M154 24 C154 24.66 154 25.32 154 26 C152.68 26 151.36 26 150 26 C150 26.66 150 27.32 150 28 C148.68 28 147.36 28 146 28 C146 28.66 146 29.32 146 30 C145.34 30 144.68 30 144 30 C144 30.66 144 31.32 144 32 C143.34 32 142.68 32 142 32 C142 32.66 142 33.32 142 34 C140.68 34 139.36 34 138 34 C138 34.66 138 35.32 138 36 C137.34 36 136.68 36 136 36 C136 36.66 136 37.32 136 38 C135.34 38 134.68 38 134 38 C134 38.66 134 39.32 134 40 C133.34 40 132.68 40 132 40 C132 40.66 132 41.32 132 42 C131.34 42 130.68 42 130 42 C130 43.32 130 44.64 130 46 C129.34 46 128.68 46 128 46 C128 46.66 128 47.32 128 48 C127.34 48 126.68 48 126 48 C126 48.66 126 49.32 126 50 C125.34 50 124.68 50 124 50 C124 51.32 124 52.64 124 54 C123.34 54 122.68 54 122 54 C122 54.66 122 55.32 122 56 C121.34 56 120.68 56 120 56 C120 57.32 120 58.64 120 60 C119.34 60 118.68 60 118 60 C118 61.32 118 62.64 118 64 C117.34 64 116.68 64 116 64 C116 65.32 116 66.64 116 68 C115.34 68 114.68 68 114 68 C114 69.32 114 70.64 114 72 C113.34 72 112.68 72 112 72 C112 73.32 112 74.64 112 76 C111.34 76 110.68 76 110 76 C110 77.32 110 78.64 110 80 C111.32 80 112.64 80 114 80 C114 79.34 114 78.68 114 78 C117.3 78 120.6 78 124 78 C124 77.34 124 76.68 124 76 C126.64 76 129.28 76 132 76 C132 75.34 132 74.68 132 74 C133.98 74 135.96 74 138 74 C138 73.34 138 72.68 138 72 C139.32 72 140.64 72 142 72 C142 71.34 142 70.68 142 70 C143.98 70 145.96 70 148 70 C148 69.34 148 68.68 148 68 C149.32 68 150.64 68 152 68 C152 67.34 152 66.68 152 66 C153.32 66 154.64 66 156 66 C156 65.34 156 64.68 156 64 C156.66 64 157.32 64 158 64 C158 63.34 158 62.68 158 62 C159.32 62 160.64 62 162 62 C162 61.34 162 60.68 162 60 C162.66 60 163.32 60 164 60 C164 59.34 164 58.68 164 58 C165.32 58 166.64 58 168 58 C168 57.34 168 56.68 168 56 C168.66 56 169.32 56 170 56 C170 55.34 170 54.68 170 54 C170.66 54 171.32 54 172 54 C172 53.34 172 52.68 172 52 C172.66 52 173.32 52 174 52 C174 50.68 174 49.36 174 48 C174.66 48 175.32 48 176 48 C176 47.34 176 46.68 176 46 C176.66 46 177.32 46 178 46 C178 44.02 178 42.04 178 40 C178.66 40 179.32 40 180 40 C180 38.68 180 37.36 180 36 C179.34 36 178.68 36 178 36 C178 34.68 178 33.36 178 32 C177.34 32 176.68 32 176 32 C176 30.68 176 29.36 176 28 C175.34 28 174.68 28 174 28 C174 27.34 174 26.68 174 26 C172.68 26 171.36 26 170 26 C170 25.34 170 24.68 170 24 C164.72 24 159.44 24 154 24 Z M-54 110 C-54 124.52 -54 139.04 -54 154 C-17.04 154 19.92 154 58 154 C58 139.48 58 124.96 58 110 C21.04 110 -15.92 110 -54 110 Z M82 110 C82 124.52 82 139.04 82 154 C87.28 154 92.56 154 98 154 C98 139.48 98 124.96 98 110 C92.72 110 87.44 110 82 110 Z M120 110 C120 123.86 120 137.72 120 152 C156.96 152 193.92 152 232 152 C232 138.14 232 124.28 232 110 C195.04 110 158.08 110 120 110 Z M-6 176 C-6 176.66 -6 177.32 -6 178 C-13.26 178 -20.52 178 -28 178 C-28 183.28 -28 188.56 -28 194 C-27.34 194 -26.68 194 -26 194 C-26 197.96 -26 201.92 -26 206 C-25.34 206 -24.68 206 -24 206 C-24 208.64 -24 211.28 -24 214 C-23.34 214 -22.68 214 -22 214 C-22 215.98 -22 217.96 -22 220 C-21.34 220 -20.68 220 -20 220 C-19.33333333 223.33333333 -18.66666667 226.66666667 -18 230 C-17.34 230 -16.68 230 -16 230 C-16 231.32 -16 232.64 -16 234 C-15.34 234 -14.68 234 -14 234 C-14 235.32 -14 236.64 -14 238 C-13.34 238 -12.68 238 -12 238 C-12 239.32 -12 240.64 -12 242 C-11.34 242 -10.68 242 -10 242 C-10 242.66 -10 243.32 -10 244 C-9.34 244 -8.68 244 -8 244 C-8 245.32 -8 246.64 -8 248 C-7.34 248 -6.68 248 -6 248 C-6 249.32 -6 250.64 -6 252 C-5.34 252 -4.68 252 -4 252 C-4 253.32 -4 254.64 -4 256 C-3.34 256 -2.68 256 -2 256 C-2 256.66 -2 257.32 -2 258 C-1.34 258 -0.68 258 0 258 C0 259.32 0 260.64 0 262 C0.66 262 1.32 262 2 262 C2 263.32 2 264.64 2 266 C2.66 266 3.32 266 4 266 C4 266.66 4 267.32 4 268 C4.66 268 5.32 268 6 268 C6 269.32 6 270.64 6 272 C6.66 272 7.32 272 8 272 C8 273.32 8 274.64 8 276 C8.66 276 9.32 276 10 276 C10 277.32 10 278.64 10 280 C10.66 280 11.32 280 12 280 C12 280.66 12 281.32 12 282 C12.66 282 13.32 282 14 282 C14 283.98 14 285.96 14 288 C14.66 288 15.32 288 16 288 C16 289.32 16 290.64 16 292 C16.66 292 17.32 292 18 292 C18 293.98 18 295.96 18 298 C18.66 298 19.32 298 20 298 C20 299.98 20 301.96 20 304 C20.66 304 21.32 304 22 304 C22 307.3 22 310.6 22 314 C22.66 314 23.32 314 24 314 C24 318.62 24 323.24 24 328 C24.66 328 25.32 328 26 328 C26 329.98 26 331.96 26 334 C36.56 334 47.12 334 58 334 C58 282.52 58 231.04 58 178 C57.34 178 56.68 178 56 178 C56 177.34 56 176.68 56 176 C35.54 176 15.08 176 -6 176 Z M82 176 C82 228.14 82 280.28 82 334 C87.28 334 92.56 334 98 334 C98 282.52 98 231.04 98 178 C97.34 178 96.68 178 96 178 C96 177.34 96 176.68 96 176 C91.38 176 86.76 176 82 176 Z M124 176 C124 176.66 124 177.32 124 178 C123.34 178 122.68 178 122 178 C122 179.32 122 180.64 122 182 C121.34 182 120.68 182 120 182 C120 232.16 120 282.32 120 334 C130.56 334 141.12 334 152 334 C152 330.04 152 326.08 152 322 C152.66 322 153.32 322 154 322 C154 318.04 154 314.08 154 310 C154.66 310 155.32 310 156 310 C156 307.36 156 304.72 156 302 C156.66 302 157.32 302 158 302 C158 300.02 158 298.04 158 296 C158.66 296 159.32 296 160 296 C160 294.02 160 292.04 160 290 C160.66 290 161.32 290 162 290 C162 288.68 162 287.36 162 286 C162.66 286 163.32 286 164 286 C164 284.68 164 283.36 164 282 C164.66 282 165.32 282 166 282 C166 280.68 166 279.36 166 278 C166.66 278 167.32 278 168 278 C168 276.68 168 275.36 168 274 C168.66 274 169.32 274 170 274 C170 272.68 170 271.36 170 270 C170.66 270 171.32 270 172 270 C172 268.68 172 267.36 172 266 C172.66 266 173.32 266 174 266 C174 265.34 174 264.68 174 264 C174.66 264 175.32 264 176 264 C176 262.68 176 261.36 176 260 C176.66 260 177.32 260 178 260 C178 258.68 178 257.36 178 256 C178.66 256 179.32 256 180 256 C180 255.34 180 254.68 180 254 C180.66 254 181.32 254 182 254 C182 252.68 182 251.36 182 250 C182.66 250 183.32 250 184 250 C184 248.68 184 247.36 184 246 C184.66 246 185.32 246 186 246 C186 244.68 186 243.36 186 242 C186.66 242 187.32 242 188 242 C188 241.34 188 240.68 188 240 C188.66 240 189.32 240 190 240 C190 238.68 190 237.36 190 236 C190.66 236 191.32 236 192 236 C192 234.68 192 233.36 192 232 C192.66 232 193.32 232 194 232 C194 230.68 194 229.36 194 228 C194.66 228 195.32 228 196 228 C196 226.02 196 224.04 196 222 C196.66 222 197.32 222 198 222 C198 220.02 198 218.04 198 216 C198.66 216 199.32 216 200 216 C200 214.02 200 212.04 200 210 C200.66 210 201.32 210 202 210 C202 207.36 202 204.72 202 202 C202.66 202 203.32 202 204 202 C204 198.04 204 194.08 204 190 C204.66 190 205.32 190 206 190 C206 185.38 206 180.76 206 176 C178.94 176 151.88 176 124 176 Z M30 358 C30 361.96 30 365.92 30 370 C68.28 370 106.56 370 146 370 C146 366.04 146 362.08 146 358 C107.72 358 69.44 358 30 358 Z M32 392 C30.56911472 394.86177057 31.40008303 396.93375773 32 400 C32.66 400 33.32 400 34 400 C34 400.66 34 401.32 34 402 C34.66 402 35.32 402 36 402 C36 402.66 36 403.32 36 404 C70.32 404 104.64 404 140 404 C140 403.34 140 402.68 140 402 C140.66 402 141.32 402 142 402 C142 401.34 142 400.68 142 400 C142.66 400 143.32 400 144 400 C144 398.68 144 397.36 144 396 C144.66 396 145.32 396 146 396 C146 394.68 146 393.36 146 392 C108.38 392 70.76 392 32 392 Z M69 428 C69.99 429.32 70.98 430.64 72 432 C72.66 432 73.32 432 74 432 C74 432.66 74 433.32 74 434 C74.66 434 75.32 434 76 434 C76 434.66 76 435.32 76 436 C77.32 436 78.64 436 80 436 C80 436.66 80 437.32 80 438 C85.94 438 91.88 438 98 438 C98 437.34 98 436.68 98 436 C99.32 436 100.64 436 102 436 C102 435.34 102 434.68 102 434 C102.66 434 103.32 434 104 434 C104 433.34 104 432.68 104 432 C104.66 432 105.32 432 106 432 C106 431.34 106 430.68 106 430 C106.66 430 107.32 430 108 430 C108 429.34 108 428.68 108 428 C95.13 428 82.26 428 69 428 Z " fill="#FFFFFF" transform="translate(167,25)"/>
</svg>
